<svg width="300" height="300" xmlns="http://www.w3.org/2000/svg">

 <g>
  <title>background</title>
  <rect fill="none" id="canvas_background" height="402" width="582" y="-1" x="-1"/>
 </g>
 <g>
  <title>Layer 1</title>
  <path id="svg_1" fill="#808080" d="m223.238,100.039c-7.408,22.829 -37.309,39.914 -73.091,39.961l-0.147,0c-51.9148,0 -94,31.34 -94,70l-56.00003,0c0,-16.547 3.87986,-32.931 11.41803,-48.218c7.5382,-15.287 18.5872,-29.177 32.5159,-40.878c13.9288,-11.7 30.4647,-20.9809 48.6636,-27.313c18.1985,-6.3321 37.7045,-9.5912 57.4025,-9.5912c19.698,0 39.204,3.2591 57.402,9.5912c5.436,1.8912 10.723,4.0454 15.836,6.448z"/>
  <path id="svg_2" fill="#808080" d="m291.526,168.249c-12.434,16.346 -28.597,30.383 -47.528,41.253c0.001,0.166 0.002,0.332 0.002,0.498l56,0c0,-14.236 -2.872,-28.351 -8.474,-41.751z"/>
  <path stroke="null" id="svg_3" fill="#808080" d="m-0.00003,208.230531l56.00003,0l0,91.769469l-56,0l-0.00003,-91.769469z"/>
  <path stroke="null" id="svg_4" fill="#808080" d="m244,209.217934l56,0l0,90.782066l-56,0l0,-90.782066z"/>
  <path id="svg_5" fill="#FFC289" d="m0,0l56,0l0,89c0,0.166 0.0007,0.3319 0.0023,0.4976c-18.8952,10.8504 -35.0723,24.8784 -47.52825,41.2534c-5.55751,-13.292 -8.47405,-27.395 -8.47405,-41.751l0,-89zm244,0l56,0l0,89c0,33.417 -15.804,65.466 -43.934,89.095c-28.13,23.63 -66.284,36.905 -106.066,36.905c-25.871,0 -51.0535,-5.614 -73.2382,-16.039c7.4182,-22.86 37.3912,-39.961 73.2382,-39.961c51.915,0 94,-31.34 94,-70l0,-89z"/>
  <path fill="#ffc289" id="svg_6" stroke="white" d="m0,0l56,0l0,89c0,0.166 0.0007,0.3319 0.0023,0.4976c-18.8952,10.8504 -35.0723,24.8784 -47.52825,41.2534c-5.55751,-13.292 -8.47405,-27.395 -8.47405,-41.751l0,-89zm244,0l56,0l0,89c0,33.417 -15.804,65.466 -43.934,89.095c-28.13,23.63 -66.284,36.905 -106.066,36.905c-25.871,0 -51.0535,-5.614 -73.2382,-16.039c7.4182,-22.86 37.3912,-39.961 73.2382,-39.961c51.915,0 94,-31.34 94,-70l0,-89z"/>
 </g>
</svg>